<svg width="1516" height="1026" viewBox="0 0 1516 1026" fill="none" xmlns="http://www.w3.org/2000/svg">
<line x1="1151" y1="563" x2="1514" y2="563" stroke="white" stroke-width="2"/>
<line x1="1151.8" y1="319.401" x2="1333.8" y2="562.401" stroke="white" stroke-width="2"/>
<line x1="1335.81" y1="319.407" x2="1514.81" y2="562.407" stroke="white" stroke-width="2"/>
<line x1="1335.81" y1="563.415" x2="1514.81" y2="811.415" stroke="white" stroke-width="2"/>
<line x1="1151.81" y1="563.411" x2="1333.81" y2="813.411" stroke="white" stroke-width="2"/>
<line x1="203" y1="320" x2="203" y2="814" stroke="white" stroke-width="2"/>
<line x1="1152" y1="320" x2="1152" y2="812" stroke="white" stroke-width="2"/>
<line x1="1334" y1="320" x2="1334" y2="814" stroke="white" stroke-width="2"/>
<line x1="1515" y1="2.00098" x2="1514" y2="1025" stroke="white" stroke-width="2"/>
<line x1="2" y1="319" x2="1514" y2="319" stroke="white" stroke-width="2"/>
<line x1="2" y1="813" x2="1514" y2="813" stroke="white" stroke-width="2"/>
<line y1="1024" x2="1512" y2="1024" stroke="white" stroke-width="2"/>
<line x1="759" y1="2" x2="759" y2="320" stroke="white" stroke-width="2"/>
<line x1="757" y1="815" x2="757" y2="1020" stroke="white" stroke-width="2"/>
<line x1="2.38773" y1="1.07823" x2="758.388" y2="319.078" stroke="white" stroke-width="2"/>
<line x1="758.388" y1="1.07823" x2="1514.39" y2="319.078" stroke="white" stroke-width="2"/>
<line x1="2.26409" y1="814.036" x2="758.264" y2="1021.04" stroke="white" stroke-width="2"/>
<line x1="757.268" y1="814.036" x2="1513.27" y2="1024.04" stroke="white" stroke-width="2"/>
<path d="M1062.33 796.955C1062.28 796.523 1062.07 796.188 1061.71 795.949C1061.34 795.71 1060.9 795.591 1060.37 795.591C1059.98 795.591 1059.64 795.653 1059.36 795.778C1059.07 795.903 1058.84 796.075 1058.68 796.294C1058.52 796.513 1058.44 796.761 1058.44 797.04C1058.44 797.273 1058.5 797.473 1058.61 797.641C1058.72 797.805 1058.87 797.943 1059.04 798.054C1059.22 798.162 1059.4 798.251 1059.6 798.322C1059.79 798.391 1059.97 798.446 1060.13 798.489L1061.02 798.727C1061.24 798.787 1061.5 798.869 1061.78 798.974C1062.06 799.08 1062.33 799.223 1062.58 799.405C1062.84 799.584 1063.05 799.814 1063.22 800.095C1063.39 800.376 1063.47 800.722 1063.47 801.131C1063.47 801.602 1063.35 802.028 1063.1 802.409C1062.86 802.79 1062.5 803.092 1062.03 803.317C1061.56 803.541 1060.99 803.653 1060.32 803.653C1059.69 803.653 1059.15 803.553 1058.69 803.351C1058.24 803.149 1057.88 802.868 1057.62 802.507C1057.36 802.146 1057.22 801.727 1057.18 801.25H1058.27C1058.3 801.58 1058.41 801.852 1058.61 802.068C1058.8 802.281 1059.05 802.44 1059.35 802.545C1059.65 802.648 1059.97 802.699 1060.32 802.699C1060.72 802.699 1061.08 802.634 1061.4 802.503C1061.73 802.369 1061.98 802.185 1062.17 801.949C1062.36 801.71 1062.45 801.432 1062.45 801.114C1062.45 800.824 1062.37 800.588 1062.21 800.406C1062.04 800.224 1061.83 800.077 1061.57 799.963C1061.3 799.849 1061.02 799.75 1060.71 799.665L1059.64 799.358C1058.95 799.162 1058.41 798.882 1058.02 798.518C1057.62 798.155 1057.42 797.679 1057.42 797.091C1057.42 796.602 1057.55 796.176 1057.82 795.812C1058.08 795.446 1058.44 795.162 1058.89 794.96C1059.34 794.756 1059.85 794.653 1060.4 794.653C1060.97 794.653 1061.47 794.754 1061.9 794.956C1062.34 795.155 1062.69 795.428 1062.94 795.774C1063.2 796.121 1063.34 796.514 1063.35 796.955H1062.33ZM1067.82 803.636C1067.19 803.636 1066.64 803.497 1066.19 803.219C1065.73 802.938 1065.38 802.545 1065.13 802.043C1064.89 801.537 1064.77 800.949 1064.77 800.278C1064.77 799.608 1064.89 799.017 1065.13 798.506C1065.38 797.991 1065.72 797.591 1066.16 797.304C1066.61 797.014 1067.12 796.869 1067.71 796.869C1068.06 796.869 1068.39 796.926 1068.72 797.04C1069.06 797.153 1069.36 797.338 1069.63 797.594C1069.91 797.847 1070.12 798.182 1070.28 798.599C1070.45 799.017 1070.53 799.531 1070.53 800.142V800.568H1065.48V799.699H1069.5C1069.5 799.33 1069.43 799 1069.28 798.71C1069.14 798.42 1068.93 798.192 1068.66 798.024C1068.39 797.857 1068.08 797.773 1067.71 797.773C1067.31 797.773 1066.97 797.872 1066.68 798.071C1066.39 798.267 1066.16 798.523 1066.01 798.838C1065.85 799.153 1065.77 799.491 1065.77 799.852V800.432C1065.77 800.926 1065.86 801.345 1066.03 801.689C1066.2 802.03 1066.44 802.29 1066.75 802.469C1067.05 802.645 1067.41 802.733 1067.82 802.733C1068.08 802.733 1068.32 802.696 1068.53 802.622C1068.75 802.545 1068.94 802.432 1069.09 802.281C1069.25 802.128 1069.37 801.937 1069.45 801.71L1070.43 801.983C1070.32 802.312 1070.15 802.602 1069.91 802.852C1069.67 803.099 1069.37 803.293 1069.01 803.432C1068.66 803.568 1068.26 803.636 1067.82 803.636ZM1072.06 803.5V796.955H1073.03V797.943H1073.1C1073.22 797.619 1073.43 797.357 1073.74 797.155C1074.06 796.953 1074.41 796.852 1074.8 796.852C1074.88 796.852 1074.97 796.854 1075.08 796.857C1075.19 796.859 1075.27 796.864 1075.33 796.869V797.892C1075.3 797.884 1075.22 797.871 1075.1 797.854C1074.98 797.834 1074.85 797.824 1074.72 797.824C1074.4 797.824 1074.11 797.891 1073.86 798.024C1073.62 798.155 1073.42 798.337 1073.28 798.57C1073.13 798.8 1073.06 799.062 1073.06 799.358V803.5H1072.06ZM1082.07 796.955L1079.65 803.5H1078.63L1076.21 796.955H1077.3L1079.11 802.17H1079.18L1080.98 796.955H1082.07ZM1083.4 803.5V796.955H1084.41V803.5H1083.4ZM1083.91 795.864C1083.72 795.864 1083.55 795.797 1083.41 795.663C1083.27 795.53 1083.2 795.369 1083.2 795.182C1083.2 794.994 1083.27 794.834 1083.41 794.7C1083.55 794.567 1083.72 794.5 1083.91 794.5C1084.11 794.5 1084.28 794.567 1084.42 794.7C1084.56 794.834 1084.63 794.994 1084.63 795.182C1084.63 795.369 1084.56 795.53 1084.42 795.663C1084.28 795.797 1084.11 795.864 1083.91 795.864ZM1088.91 803.636C1088.29 803.636 1087.77 803.491 1087.32 803.202C1086.88 802.912 1086.54 802.513 1086.3 802.004C1086.06 801.496 1085.94 800.915 1085.94 800.261C1085.94 799.597 1086.06 799.01 1086.31 798.501C1086.56 797.99 1086.9 797.591 1087.34 797.304C1087.78 797.014 1088.3 796.869 1088.89 796.869C1089.35 796.869 1089.77 796.955 1090.13 797.125C1090.5 797.295 1090.81 797.534 1091.04 797.841C1091.28 798.148 1091.42 798.506 1091.48 798.915H1090.48C1090.4 798.616 1090.23 798.352 1089.96 798.122C1089.7 797.889 1089.35 797.773 1088.91 797.773C1088.52 797.773 1088.17 797.875 1087.88 798.08C1087.58 798.281 1087.36 798.567 1087.19 798.936C1087.03 799.303 1086.95 799.733 1086.95 800.227C1086.95 800.733 1087.03 801.173 1087.19 801.548C1087.35 801.923 1087.58 802.214 1087.87 802.422C1088.16 802.629 1088.51 802.733 1088.91 802.733C1089.17 802.733 1089.41 802.688 1089.62 802.597C1089.83 802.506 1090.01 802.375 1090.16 802.205C1090.31 802.034 1090.41 801.83 1090.48 801.591H1091.48C1091.42 801.977 1091.28 802.325 1091.06 802.635C1090.84 802.942 1090.54 803.186 1090.18 803.368C1089.81 803.547 1089.39 803.636 1088.91 803.636ZM1095.7 803.636C1095.07 803.636 1094.52 803.497 1094.06 803.219C1093.61 802.938 1093.26 802.545 1093.01 802.043C1092.77 801.537 1092.64 800.949 1092.64 800.278C1092.64 799.608 1092.77 799.017 1093.01 798.506C1093.26 797.991 1093.6 797.591 1094.04 797.304C1094.49 797.014 1095 796.869 1095.59 796.869C1095.93 796.869 1096.27 796.926 1096.6 797.04C1096.94 797.153 1097.24 797.338 1097.51 797.594C1097.78 797.847 1098 798.182 1098.16 798.599C1098.33 799.017 1098.41 799.531 1098.41 800.142V800.568H1093.36V799.699H1097.38C1097.38 799.33 1097.31 799 1097.16 798.71C1097.02 798.42 1096.81 798.192 1096.54 798.024C1096.27 797.857 1095.96 797.773 1095.59 797.773C1095.19 797.773 1094.85 797.872 1094.55 798.071C1094.26 798.267 1094.04 798.523 1093.88 798.838C1093.73 799.153 1093.65 799.491 1093.65 799.852V800.432C1093.65 800.926 1093.74 801.345 1093.91 801.689C1094.08 802.03 1094.32 802.29 1094.63 802.469C1094.93 802.645 1095.29 802.733 1095.7 802.733C1095.96 802.733 1096.2 802.696 1096.41 802.622C1096.63 802.545 1096.81 802.432 1096.97 802.281C1097.13 802.128 1097.25 801.937 1097.33 801.71L1098.3 801.983C1098.2 802.312 1098.03 802.602 1097.79 802.852C1097.55 803.099 1097.25 803.293 1096.89 803.432C1096.54 803.568 1096.14 803.636 1095.7 803.636Z" 

fill="black" stroke-dasharray="1800" stroke-dashoffset="1600" ><animate attributeName="stroke-dashoffset" values="1600;0" 
 dur="5s" fill="freeze"/></path>

</svg>
